<svg width="117" height="53" viewBox="0 0 117 53" fill="none" xmlns="http://www.w3.org/2000/svg">
<path d="M44.738 40.8084L54.947 10.8784H64.459L74.955 40.8084H68.969L66.222 32.8544H53.184L50.56 40.8084H44.738ZM54.824 27.9344H64.541L60.4 15.7574H58.883L54.824 27.9344ZM78.9567 40.8084V15.1424H76.1687V10.8784H84.6557V40.8084H78.9567ZM94.3189 15.8804C93.1982 15.8804 92.3645 15.5934 91.8179 15.0194C91.2985 14.4181 91.0389 13.6664 91.0389 12.7644C91.0389 11.8624 91.2985 11.1244 91.8179 10.5504C92.3645 9.97641 93.1982 9.68941 94.3189 9.68941C95.4122 9.68941 96.2185 9.97641 96.7379 10.5504C97.2845 11.1244 97.5579 11.8624 97.5579 12.7644C97.5579 13.6664 97.2845 14.4181 96.7379 15.0194C96.2185 15.5934 95.4122 15.8804 94.3189 15.8804ZM92.2279 40.8084V22.8094H89.1119V18.5454H97.9269V40.8084H92.2279ZM105.028 40.8084V23.0964H102.24V18.9144H105.028V18.0124C105.028 15.4704 105.725 13.5981 107.119 12.3954C108.54 11.1654 110.631 10.5504 113.392 10.5504H116.18V14.9374H112.982C112.135 14.9374 111.479 15.1697 111.014 15.6344C110.577 16.0717 110.358 16.7004 110.358 17.5204V18.9144H116.549V23.0964H110.358V40.8084H105.028Z" fill="white"/>
<rect x="0.393555" y="6.80841" width="40" height="40" rx="20" fill="white"/>
<g clip-path="url(#clip0)">
<path d="M15.6313 25.9459C15.2563 25.5709 14.7313 25.5709 14.5063 26.0584L8.8438 37.4209C8.6188 37.8334 8.9563 38.4334 9.4813 38.4334H17.3938C17.6563 38.4334 17.9188 38.2834 18.0313 38.0584C19.7188 34.4959 18.6688 29.1334 15.6313 25.9459ZM19.8313 15.5584C14.3563 24.3334 19.4563 31.3459 22.7938 38.0584C22.9063 38.2834 23.1688 38.4334 23.4313 38.4334H31.3438C31.8688 38.4334 32.2063 37.9084 31.9813 37.4209C31.9813 37.4209 21.3688 16.0834 21.1063 15.5584C20.7688 15.0709 20.1313 15.0709 19.8313 15.5584Z" fill="#3056D3"/>
</g>
<defs>
<clipPath id="clip0">
<rect width="24" height="24" fill="white" transform="translate(8.39355 14.8084)"/>
</clipPath>
</defs>
</svg>
