<svg width="117" height="53" viewBox="0 0 117 53" fill="none" xmlns="http://www.w3.org/2000/svg">
<path d="M44.738 40.3095L54.947 10.3795H64.459L74.955 40.3095H68.969L66.222 32.3555H53.184L50.56 40.3095H44.738ZM54.824 27.4355H64.541L60.4 15.2585H58.883L54.824 27.4355ZM78.9567 40.3095V14.6435H76.1687V10.3795H84.6557V40.3095H78.9567ZM94.3189 15.3815C93.1982 15.3815 92.3645 15.0945 91.8179 14.5205C91.2985 13.9192 91.0389 13.1675 91.0389 12.2655C91.0389 11.3635 91.2985 10.6255 91.8179 10.0515C92.3645 9.47751 93.1982 9.19051 94.3189 9.19051C95.4122 9.19051 96.2185 9.47751 96.7379 10.0515C97.2845 10.6255 97.5579 11.3635 97.5579 12.2655C97.5579 13.1675 97.2845 13.9192 96.7379 14.5205C96.2185 15.0945 95.4122 15.3815 94.3189 15.3815ZM92.2279 40.3095V22.3105H89.1119V18.0465H97.9269V40.3095H92.2279ZM105.028 40.3095V22.5975H102.24V18.4155H105.028V17.5135C105.028 14.9715 105.725 13.0992 107.119 11.8965C108.54 10.6665 110.631 10.0515 113.392 10.0515H116.18V14.4385H112.982C112.135 14.4385 111.479 14.6708 111.014 15.1355C110.577 15.5728 110.358 16.2015 110.358 17.0215V18.4155H116.549V22.5975H110.358V40.3095H105.028Z" fill="#3056D3"/>
<rect x="0.393555" y="6.30951" width="40" height="40" rx="20" fill="#3056D3"/>
<g clip-path="url(#clip0)">
<path d="M15.6313 25.447C15.2563 25.072 14.7313 25.072 14.5063 25.5595L8.8438 36.922C8.6188 37.3345 8.9563 37.9345 9.4813 37.9345H17.3938C17.6563 37.9345 17.9188 37.7845 18.0313 37.5595C19.7188 33.997 18.6688 28.6345 15.6313 25.447ZM19.8313 15.0595C14.3563 23.8345 19.4563 30.847 22.7938 37.5595C22.9063 37.7845 23.1688 37.9345 23.4313 37.9345H31.3438C31.8688 37.9345 32.2063 37.4095 31.9813 36.922C31.9813 36.922 21.3688 15.5845 21.1063 15.0595C20.7688 14.572 20.1313 14.572 19.8313 15.0595Z" fill="white"/>
</g>
<defs>
<clipPath id="clip0">
<rect width="24" height="24" fill="white" transform="translate(8.39355 14.3095)"/>
</clipPath>
</defs>
</svg>
